<svg width="141" height="32" viewBox="0 0 141 32" fill="none" xmlns="http://www.w3.org/2000/svg">
<g clip-path="url(#clip0_6620_30744)">
<path d="M16.7683 4.65394H4.62285V12.0244H16.4155V16.3855H4.62285V26.6379H16.7683V30.9735H0.0620117V0.318359H16.7683V4.65394Z" fill="#5E3B76"/>
<path d="M22.74 30.9732H17.3477L32.8192 11.6416H38.2368L22.74 30.9732ZM32.3909 22.047L39.3455 30.9732H34.1043L29.7199 25.2859L32.3909 22.047ZM24.5543 18.7826L18.9855 11.6416H24.2519L27.2001 15.5436L24.5543 18.7826Z" fill="#5E3B76"/>
<path d="M53.7335 11.6419H58.1684V30.9735H53.7335V28.9588C51.9193 30.693 49.9538 31.5346 47.8624 31.5346C45.2166 31.5346 43.0496 30.5655 41.3109 28.6272C39.5975 26.6634 38.7407 24.1896 38.7407 21.2312C38.7407 18.3238 39.5975 15.9265 41.3109 13.9882C42.9236 12.101 45.2922 11.0298 47.7364 11.0808C49.9538 11.0808 51.9445 11.999 53.7083 13.8607L53.7335 11.6419ZM43.2512 21.2567C43.2512 23.1185 43.7299 24.6232 44.7126 25.7963C45.645 26.944 47.0561 27.5816 48.5176 27.5561C50.1554 27.5561 51.4657 26.995 52.4736 25.8473C53.4816 24.6742 53.9855 23.1695 53.9855 21.3587C53.9855 19.548 53.4816 18.0433 52.4736 16.8701C51.4909 15.7225 50.0546 15.0849 48.5427 15.1359C47.0813 15.1104 45.6702 15.748 44.7378 16.8956C43.7551 18.0433 43.2512 19.497 43.2512 21.2567Z" fill="#5E3B76"/>
<path d="M61.7215 11.6416H66.1311V13.4268C66.9879 12.5342 67.7186 11.9221 68.2982 11.5906C69.0541 11.2335 69.8856 11.055 70.7172 11.0805C72.8842 11.0805 74.5725 12.0241 75.8324 13.9369C77.2183 12.0241 79.0829 11.0805 81.4515 11.0805C85.7604 11.0805 87.9022 13.7329 87.9022 19.0121V30.9732H83.4673V20.2363C83.4673 18.3745 83.2406 17.0738 82.8122 16.3087C82.3586 15.5436 81.6027 15.1611 80.5444 15.1356C79.3349 15.1356 78.4529 15.5946 77.8986 16.5383C77.3442 17.4564 77.0671 18.9611 77.0671 21.0014V30.9987H72.6322V20.2873C72.6322 16.8443 71.6495 15.1356 69.684 15.1356C68.4493 15.1356 67.5422 15.5946 66.9627 16.5383C66.3831 17.4819 66.1059 18.9611 66.1059 20.9759V30.9732H61.6963L61.7215 11.6416Z" fill="#5E3B76"/>
<path d="M90.8247 3.58277C90.8247 2.81767 91.1271 2.07807 91.6814 1.568C92.7901 0.44585 94.6044 0.420346 95.7383 1.568C96.2927 2.10357 96.595 2.84317 96.595 3.60828C96.6202 4.37338 96.2927 5.13848 95.7383 5.67405C95.2091 6.23513 94.4784 6.54117 93.7225 6.54117C92.9413 6.56667 92.2106 6.23513 91.6814 5.67405C91.1271 5.13848 90.8247 4.37338 90.8247 3.58277ZM95.9147 11.6419V30.9735H91.505V11.6419H95.9147Z" fill="#5E3B76"/>
<path d="M99.4937 11.642H103.929V13.4273C105.466 11.8715 107.204 11.1064 109.144 11.1064C111.362 11.1064 113.101 11.8205 114.335 13.2232C115.419 14.4219 115.948 16.3857 115.948 19.1145V30.9736H111.513V20.1857C111.513 18.2729 111.261 16.9722 110.732 16.2326C110.203 15.5185 109.27 15.136 107.96 15.1105C106.499 15.1105 105.466 15.5951 104.836 16.5897C104.206 17.5843 103.929 19.242 103.929 21.6394V30.9481H99.4937V11.642Z" fill="#5E3B76"/>
<path d="M136.912 22.3531H123.23C123.356 23.9343 123.86 25.2095 124.767 26.1531C125.674 27.0967 126.934 27.5813 128.244 27.5303C129.202 27.5813 130.159 27.3008 130.965 26.7397C131.671 26.2041 132.477 25.235 133.384 23.8068L137.114 25.8981C136.585 26.8162 135.98 27.6578 135.299 28.4484C134.695 29.137 134.014 29.7236 133.233 30.2082C132.502 30.6672 131.696 30.9988 130.865 31.2028C129.957 31.4323 129.025 31.5343 128.093 31.5088C125.245 31.5088 122.952 30.5907 121.239 28.729C119.525 26.8672 118.644 24.3934 118.644 21.3075C118.644 18.247 119.475 15.7732 121.163 13.886C122.852 11.9987 125.069 11.0551 127.866 11.0806C130.688 11.0806 132.906 11.9987 134.543 13.8095C136.181 15.6202 136.988 18.1195 136.988 21.3075L136.912 22.3531ZM132.376 18.7061C131.772 16.3343 130.285 15.1356 127.916 15.1356C127.412 15.1356 126.883 15.2121 126.405 15.3907C125.951 15.5437 125.497 15.7987 125.119 16.1048C124.741 16.4108 124.389 16.7934 124.137 17.2269C123.86 17.686 123.633 18.196 123.507 18.7061H132.376Z" fill="#5E3B76"/>
<path d="M135.476 6.5924H134.519V6.23535H136.862V6.5924H135.879V9.47429H135.476V6.5924Z" fill="#5E3B76"/>
<path d="M137.416 6.23535H137.895L138.499 7.96959C138.575 8.19912 138.651 8.42865 138.726 8.63268H138.751C138.827 8.40314 138.902 8.17361 138.978 7.96959L139.583 6.23535H140.062V9.47429H139.684V7.68905C139.684 7.40851 139.709 7.02596 139.734 6.74542H139.709L139.457 7.48502L138.852 9.16825H138.575L137.97 7.48502L137.718 6.74542H137.693C137.718 7.02596 137.743 7.40851 137.743 7.68905V9.47429H137.391V6.23535H137.416Z" fill="#5E3B76"/>
</g>
<defs>
<clipPath id="clip0_6620_30744">
<rect width="140" height="31.2162" fill="white" transform="translate(0.0620117 0.318359)"/>
</clipPath>
</defs>
</svg>
